# Blender v2.92.0 OBJ File: ''
# www.blender.org
mtllib treeModelLowPoly.mtl
o Cylinder
v 0.000000 -0.251768 -0.617212
v 0.000000 0.666435 -0.730287
v 0.694544 0.666435 -0.225671
v 0.587003 -0.251768 -0.190729
v 0.429252 0.666435 0.590815
v 0.362788 -0.251768 0.499335
v -0.429252 0.666435 0.590814
v -0.362788 -0.251768 0.499335
v -0.694544 0.666435 -0.225671
v -0.587003 -0.251768 -0.190729
v 0.000000 -1.066306 -0.730287
v 0.694544 -1.066306 -0.225671
v 0.429252 -1.066306 0.590815
v -0.429252 -1.066306 0.590814
v -0.694544 -1.066306 -0.225671
v 2.671377 0.076703 -0.867986
v 1.651002 0.265103 2.272407
v 0.507878 6.645106 1.033801
v 0.950796 6.518630 -0.152054
v 0.302785 8.299608 -0.004332
v 0.184492 8.262811 0.357872
v -2.671377 0.076703 -0.867987
v 0.000000 0.265103 -2.808856
v -1.651002 0.265103 2.272406
v -0.198314 8.262811 0.357872
v 0.045186 9.353429 0.118737
v -0.059008 9.353429 0.118737
v -0.009194 6.649660 -0.861403
v -0.969183 6.518630 -0.152055
v -0.316607 8.299608 -0.004333
v -0.006911 8.322349 -0.228188
v -0.602500 6.787099 0.959427
v -2.688211 0.166817 -0.873453
v -1.661406 0.350107 2.286728
v -0.997544 1.924435 1.373002
v -1.614060 1.924436 -0.524440
v -2.335823 1.743496 -0.759441
v -1.443618 1.932897 1.986351
v -0.790440 3.462488 1.183698
v -1.278959 3.526662 -0.318439
v -1.415290 4.192926 -0.385984
v -0.874697 4.234838 1.278794
v -0.592530 5.079862 0.961398
v -0.953051 5.125119 -0.147250
v -1.430404 4.957881 -0.313153
v -0.887550 5.078058 1.363636
v -0.385426 6.750811 0.662539
v -0.617950 6.696947 -0.051067
v 2.688211 0.166817 -0.873452
v 0.000000 0.350107 -2.826553
v 0.000000 1.924435 -1.697124
v 1.614061 1.924436 -0.524440
v 2.335823 1.722525 -0.759441
v 0.000000 1.925966 -2.456434
v 0.000000 3.566323 -1.246810
v 1.278959 3.526662 -0.318438
v 1.415290 4.192925 -0.385984
v 0.000000 4.304653 -1.407942
v -0.009194 5.153089 -0.832432
v 0.934664 5.125119 -0.147249
v 1.412017 4.957881 -0.313153
v -0.009194 5.181602 -1.337301
v -0.009194 6.663656 -0.492100
v 0.599563 6.696947 -0.051067
v 1.661406 0.350107 2.286729
v 0.997544 1.924435 1.373002
v 1.443618 1.749638 1.986351
v 0.790440 3.462488 1.183698
v 0.874697 4.265803 1.280354
v 0.574142 5.079862 0.961399
v 0.869163 5.078058 1.363637
v 0.367039 6.750811 0.662539
v -0.552835 6.687957 0.897335
v -0.887664 6.439985 -0.117378
v -0.011070 6.562458 -0.765319
v 0.865525 6.439985 -0.117378
v 0.459910 6.556113 0.966393
v 1.289735 4.832659 -0.285990
v 0.793588 4.942385 1.246743
v -1.308122 4.832659 -0.285990
v -0.009194 5.043159 -1.221911
v -0.811976 4.942385 1.246743
v 1.790336 3.264872 -0.496441
v 1.106488 3.358982 1.614165
v -1.790335 3.264872 -0.496441
v 0.000000 3.504334 -1.788152
v -1.106488 3.300195 1.611653
v 2.317495 1.603843 -0.753003
v 1.432291 1.627077 1.971376
v -2.317495 1.625186 -0.753003
v 0.000000 1.813586 -2.436762
v -1.432291 1.813586 1.971376
v 0.077383 9.363444 0.020152
v -0.006911 9.369635 -0.040778
v -0.091205 9.363444 0.020151
v 1.132897 3.480515 1.662965
v 1.833066 3.372812 -0.496918
v 0.000000 3.602063 -1.820113
v -1.833066 3.372812 -0.496918
v -1.132897 3.422085 1.660656
v -0.537225 6.747570 0.871288
v -0.862406 6.508960 -0.114354
v -0.011070 6.625686 -0.743457
v 0.840267 6.508960 -0.114354
v 0.447261 6.621240 0.937457
v 1.258822 4.898829 -0.276018
v 0.774483 5.006032 1.220067
v -1.277209 4.898829 -0.276018
v -0.009194 5.099550 -1.189751
v -0.792871 5.006032 1.220067
v -1.081653 3.386600 1.586301
v -1.750152 3.342254 -0.473852
v 0.000000 3.564414 -1.737061
v 1.750152 3.342254 -0.473852
v 1.081653 3.442749 1.588559
v 2.276784 1.672631 -0.740164
v 1.407130 1.698415 1.936250
v -2.276784 1.693166 -0.740164
v 0.000000 1.872315 -2.394279
v -1.407130 1.877864 1.936249
v 2.622028 0.157453 -0.851951
v 1.620503 0.337432 2.230428
v -2.622028 0.157453 -0.851952
v 0.000000 0.337432 -2.756967
v -1.620503 0.337432 2.230427
vt 0.248999 0.001001
vt 0.001001 0.001001
vt 0.001001 0.248999
vt 0.248999 0.248999
vt 0.248999 0.251001
vt 0.001001 0.251001
vt 0.001001 0.498999
vt 0.248999 0.498999
vt 0.498999 0.001001
vt 0.251001 0.001001
vt 0.251001 0.248999
vt 0.498999 0.248999
vt 0.498999 0.251001
vt 0.251001 0.251001
vt 0.251001 0.498999
vt 0.498999 0.498999
vt 0.248999 0.501001
vt 0.001001 0.501001
vt 0.001001 0.748999
vt 0.248999 0.748999
vt 0.595728 0.248999
vt 0.501001 0.125000
vt 0.595728 0.001001
vt 0.748999 0.048364
vt 0.748999 0.201636
vt 0.748999 0.251001
vt 0.501001 0.251001
vt 0.501001 0.498999
vt 0.748999 0.498999
vt 0.498999 0.501001
vt 0.251001 0.501001
vt 0.251001 0.748999
vt 0.498999 0.748999
vt 0.748999 0.501001
vt 0.501001 0.501001
vt 0.501001 0.748999
vt 0.748999 0.748999
vt 0.248999 0.751001
vt 0.001001 0.751001
vt 0.001001 0.998999
vt 0.248999 0.998999
vt 0.998999 0.001001
vt 0.751001 0.001001
vt 0.751001 0.248999
vt 0.998999 0.248999
vt 0.000000 0.000000
vt 0.000000 0.000000
vt 0.000000 0.000000
vt 0.000000 0.000000
vt 0.347205 0.482092
vt 0.347185 0.482341
vt 0.347120 0.482203
vt 0.347120 0.482166
vt 0.000000 0.000000
vt 0.000000 0.000000
vt 0.000000 0.000000
vt 0.000000 0.000000
vt 0.000000 0.000000
vt 0.000000 0.000000
vt 0.347104 0.482157
vt 0.347106 0.482182
vt 0.347106 0.482181
vt 0.347053 0.482351
vt 0.346990 0.482144
vt 0.347089 0.482175
vt 0.347100 0.482201
vt 0.347097 0.482001
vt 0.000079 0.331108
vt 0.329584 0.000079
vt 0.338938 0.318066
vt 0.195330 0.423222
vt 0.279774 0.458561
vt 0.341734 0.377993
vt 0.344675 0.444249
vt 0.318589 0.472746
vt 0.340531 0.480775
vt 0.346288 0.472400
vt 0.346816 0.478520
vt 0.343996 0.481107
vt 0.345817 0.481706
vt 0.346902 0.480040
vt 0.347076 0.481758
vt 0.346725 0.482044
vt 0.619147 0.999921
vt 0.190512 0.950892
vt 0.294770 0.644650
vt 0.463812 0.710373
vt 0.396288 0.578485
vt 0.315639 0.582461
vt 0.338333 0.510846
vt 0.367085 0.519589
vt 0.351669 0.491075
vt 0.344113 0.491701
vt 0.346045 0.485571
vt 0.349382 0.486503
vt 0.347994 0.483883
vt 0.346532 0.484027
vt 0.347004 0.482511
vt 0.347299 0.482597
vt 0.619147 0.219326
vt 0.458157 0.387112
vt 0.406211 0.436454
vt 0.362855 0.468187
vt 0.352220 0.477897
vt 0.349227 0.480285
vt 0.348133 0.481295
vt 0.347340 0.482022
vt 0.347093 0.481948
vt 0.346963 0.482132
vt 0.347037 0.482399
vt 0.347211 0.482382
vt 0.347226 0.482072
vt 0.348161 0.484227
vt 0.348437 0.481053
vt 0.345570 0.481651
vt 0.346385 0.484493
vt 0.346846 0.479512
vt 0.357042 0.500688
vt 0.358485 0.472373
vt 0.333236 0.477232
vt 0.341029 0.502065
vt 0.345361 0.458497
vt 0.400636 0.586591
vt 0.411302 0.432035
vt 0.273990 0.456192
vt 0.312996 0.590567
vt 0.341242 0.369034
vt 0.347106 0.482182
vt 0.347106 0.482182
vt 0.347106 0.482182
vt 0.357148 0.473476
vt 0.356006 0.498612
vt 0.341679 0.499975
vt 0.334767 0.477629
vt 0.345549 0.461227
vt 0.347094 0.481964
vt 0.346979 0.482138
vt 0.347042 0.482384
vt 0.347199 0.482361
vt 0.347216 0.482084
vt 0.348075 0.484072
vt 0.348369 0.481111
vt 0.345687 0.481691
vt 0.346417 0.484389
vt 0.346846 0.479692
vt 0.345361 0.459971
vt 0.334264 0.477501
vt 0.341269 0.501293
vt 0.356348 0.499299
vt 0.357954 0.472819
vt 0.397771 0.581205
vt 0.408763 0.435008
vt 0.277764 0.457724
vt 0.313989 0.587540
vt 0.341414 0.372523
vt 0.000000 0.000000
vt 0.000000 0.000000
vt 0.000000 0.000000
vt 0.000000 0.000000
vt 0.000000 0.000000
vt 0.000000 0.000000
vt 0.000000 0.000000
vt 0.000000 0.000000
vt 0.000000 0.000000
vt 0.000000 0.000000
vn 0.5849 -0.0991 -0.8050
vn 0.9464 -0.0991 0.3075
vn -0.0000 -0.0991 0.9951
vn -0.9464 -0.0991 0.3075
vn -0.5849 -0.0991 -0.8050
vn 0.0000 -1.0000 -0.0000
vn -0.5841 0.1116 -0.8040
vn -0.9451 0.1116 0.3071
vn -0.0000 0.1116 0.9938
vn 0.9451 0.1116 0.3071
vn 0.5841 0.1116 -0.8040
vn -0.2820 -0.9583 -0.0460
vn 0.9007 0.3054 0.3088
vn 0.2011 -0.9583 0.2030
vn -0.2011 -0.9583 0.2030
vn 0.0000 -0.9727 -0.2321
vn 0.2820 -0.9583 -0.0460
vn 0.0000 0.2142 0.9768
vn -0.5900 0.2829 -0.7562
vn -0.0097 0.3819 0.9242
vn 0.5902 0.2814 -0.7566
vn -0.9108 0.3301 0.2479
vn -0.8389 0.4808 0.2551
vn -0.8458 0.4651 0.2612
vn -0.8792 0.3809 0.2861
vn -0.8890 0.3761 0.2610
vn 0.5287 0.4808 -0.6995
vn 0.5327 0.4931 -0.6878
vn 0.5359 0.4686 -0.7023
vn 0.5623 0.3921 -0.7281
vn -0.0000 0.5020 0.8649
vn 0.0182 0.4436 0.8960
vn -0.0043 0.3581 0.9337
vn -0.0000 0.3865 0.9223
vn -0.5287 0.4808 -0.6995
vn -0.5302 0.4954 -0.6881
vn -0.5383 0.4599 -0.7062
vn -0.5623 0.3921 -0.7281
vn 0.8389 0.4808 0.2551
vn 0.8515 0.4429 0.2806
vn 0.8717 0.4028 0.2791
vn 0.8890 0.3761 0.2610
vn 0.5778 -0.8148 -0.0474
vn -0.4078 -0.7683 0.4933
vn -0.0500 -0.8983 -0.4365
vn 0.4055 -0.7718 0.4898
vn -0.7171 -0.6703 -0.1912
vn -0.5641 -0.8094 -0.1632
vn 0.3722 -0.8418 0.3911
vn 0.0000 -0.9009 -0.4340
vn -0.3722 -0.8418 0.3911
vn 0.5641 -0.8094 -0.1632
vn -0.3722 -0.9212 -0.1131
vn 0.2576 -0.9364 0.2384
vn 0.0150 -0.9551 -0.2957
vn -0.2576 -0.9364 0.2384
vn 0.4170 -0.8977 -0.1426
vn -0.4377 -0.8885 -0.1377
vn 0.2201 -0.9454 0.2405
vn -0.0363 -0.9458 -0.3226
vn -0.2320 -0.9400 0.2503
vn 0.3194 -0.9454 -0.0653
vn -0.0000 0.9949 0.1011
vn 0.5867 0.1426 -0.7972
vn -0.9276 0.1891 0.3222
vn 0.9276 0.1891 0.3222
vn -0.5867 0.1426 -0.7972
vn 0.8723 0.4119 0.2634
vn -0.5632 0.4025 -0.7217
vn -0.0105 0.4315 0.9020
vn 0.5632 0.4025 -0.7217
vn -0.8719 0.4063 0.2733
vn -0.9171 0.3312 0.2220
vn 0.5971 0.2571 -0.7598
vn -0.0098 0.4035 0.9149
vn -0.5971 0.2571 -0.7598
vn 0.9001 0.3130 0.3031
vn -0.1843 -0.9397 0.2880
vn 0.0147 -0.9795 -0.2011
vn -0.1414 -0.9373 0.3185
vn -0.0150 -0.9794 -0.2016
vn 0.1382 -0.9780 0.1560
vn 0.8891 0.3761 0.2609
vn -0.5784 0.3918 -0.7155
vn 0.5784 0.3918 -0.7155
vn -0.8891 0.3761 0.2609
vn 0.3932 -0.8992 0.1917
vn -0.2097 -0.8531 -0.4778
vn -0.0000 -0.8938 0.4484
vn 0.2097 -0.8531 -0.4778
vn -0.3932 -0.8992 0.1917
vn -0.8901 0.3581 0.2819
vn 0.5449 0.5143 -0.6622
vn -0.0086 0.2869 0.9579
vn -0.5449 0.5143 -0.6622
vn 0.8907 0.3645 0.2717
vn -0.3910 -0.9085 0.1471
vn 0.1917 -0.8869 -0.4203
vn 0.0227 -0.8969 0.4416
vn -0.1917 -0.8869 -0.4203
vn 0.3939 -0.9029 0.1722
vn 0.8531 0.4445 0.2732
vn -0.5414 0.4764 -0.6927
vn 0.0296 0.4598 0.8875
vn 0.5448 0.4740 -0.6917
vn -0.8509 0.4650 0.2444
vn 0.6729 -0.7045 0.2255
vn -0.3864 -0.6946 -0.6068
vn -0.0436 -0.6854 0.7268
vn 0.3813 -0.6960 -0.6085
vn -0.6740 -0.6890 0.2665
vn 0.8419 0.4807 0.2451
vn -0.5371 0.4807 -0.6932
vn 0.5371 0.4807 -0.6932
vn -0.8419 0.4807 0.2451
vn 0.1657 -0.9799 0.1108
vn -0.0689 -0.9799 -0.1871
vn -0.0000 -0.9756 0.2196
vn 0.0689 -0.9799 -0.1871
vn -0.1657 -0.9799 0.1108
usemtl Material.010
s 1
f 1/1/1 2/2/1 3/3/1 4/4/1
f 4/5/2 3/6/2 5/7/2 6/8/2
f 6/9/3 5/10/3 7/11/3 8/12/3
f 8/13/4 7/14/4 9/15/4 10/16/4
f 10/17/5 9/18/5 2/19/5 1/20/5
f 11/21/6 12/22/6 13/23/6 14/24/6 15/25/6
f 15/26/7 10/27/7 1/28/7 11/29/7
f 14/30/8 8/31/8 10/32/8 15/33/8
f 13/34/9 6/35/9 8/36/9 14/37/9
f 12/38/10 4/39/10 6/40/10 13/41/10
f 11/42/11 1/43/11 4/44/11 12/45/11
usemtl Material.009
f 5/46/12 3/47/12 16/48/12 17/49/12
f 18/50/13 19/51/13 20/52/13 21/53/13
f 2/54/14 9/55/14 22/56/14 23/57/14
f 3/47/15 2/54/15 23/57/15 16/48/15
f 7/58/16 5/46/16 17/49/16 24/59/16
f 9/55/17 7/58/17 24/59/17 22/56/17
f 25/60/18 21/53/18 26/61/18 27/62/18
f 28/63/19 29/64/19 30/65/19 31/66/19
f 32/67/20 18/50/20 21/53/20 25/60/20
f 19/51/21 28/63/21 31/66/21 20/52/21
f 29/64/22 32/67/22 25/60/22 30/65/22
f 33/68/23 34/69/23 35/70/23 36/71/23
f 37/72/24 38/73/24 39/74/24 40/75/24
f 41/76/25 42/77/25 43/78/25 44/79/25
f 45/80/26 46/81/26 47/82/26 48/83/26
f 49/84/27 50/85/27 51/86/27 52/87/27
f 53/88/28 54/89/28 55/90/28 56/91/28
f 57/92/29 58/93/29 59/94/29 60/95/29
f 61/96/30 62/97/30 63/98/30 64/99/30
f 34/69/31 65/100/31 66/101/31 35/70/31
f 38/73/32 67/102/32 68/103/32 39/74/32
f 42/77/33 69/104/33 70/105/33 43/78/33
f 46/81/34 71/106/34 72/107/34 47/82/34
f 50/85/35 33/68/35 36/71/35 51/86/35
f 54/89/36 37/72/36 40/75/36 55/90/36
f 58/93/37 41/76/37 44/79/37 59/94/37
f 62/97/38 45/80/38 48/83/38 63/98/38
f 65/100/39 49/84/39 52/87/39 66/101/39
f 67/102/40 53/88/40 56/91/40 68/103/40
f 69/104/41 57/92/41 60/95/41 70/105/41
f 71/106/42 61/96/42 64/99/42 72/107/42
f 48/83/43 47/82/43 73/108/43 74/109/43
f 64/99/44 63/98/44 75/110/44 76/111/44
f 47/82/45 72/107/45 77/112/45 73/108/45
f 63/98/46 48/83/46 74/109/46 75/110/46
f 72/107/47 64/99/47 76/111/47 77/112/47
f 70/105/48 60/95/48 78/113/48 79/114/48
f 59/94/49 44/79/49 80/115/49 81/116/49
f 43/78/50 70/105/50 79/114/50 82/117/50
f 60/95/51 59/94/51 81/116/51 78/113/51
f 44/79/52 43/78/52 82/117/52 80/115/52
f 68/103/53 56/91/53 83/118/53 84/119/53
f 55/90/54 40/75/54 85/120/54 86/121/54
f 39/74/55 68/103/55 84/119/55 87/122/55
f 56/91/56 55/90/56 86/121/56 83/118/56
f 40/75/57 39/74/57 87/122/57 85/120/57
f 66/101/58 52/87/58 88/123/58 89/124/58
f 51/86/59 36/71/59 90/125/59 91/126/59
f 35/70/60 66/101/60 89/124/60 92/127/60
f 52/87/61 51/86/61 91/126/61 88/123/61
f 36/71/62 35/70/62 92/127/62 90/125/62
f 93/128/63 94/129/63 95/130/63 27/62/63 26/61/63
f 20/52/64 31/66/64 94/129/64 93/128/64
f 30/65/65 25/60/65 27/62/65 95/130/65
f 21/53/66 20/52/66 93/128/66 26/61/66
f 31/66/67 30/65/67 95/130/67 94/129/67
f 96/131/68 97/132/68 57/92/68 69/104/68
f 98/133/69 99/134/69 41/76/69 58/93/69
f 100/135/70 96/131/70 69/104/70 42/77/70
f 97/132/71 98/133/71 58/93/71 57/92/71
f 99/134/72 100/135/72 42/77/72 41/76/72
f 74/109/73 73/108/73 101/136/73 102/137/73
f 76/111/74 75/110/74 103/138/74 104/139/74
f 73/108/75 77/112/75 105/140/75 101/136/75
f 75/110/76 74/109/76 102/137/76 103/138/76
f 77/112/77 76/111/77 104/139/77 105/140/77
f 102/137/78 101/136/78 32/67/78 29/64/78
f 104/139/79 103/138/79 28/63/79 19/51/79
f 101/136/80 105/140/80 18/50/80 32/67/80
f 103/138/81 102/137/81 29/64/81 28/63/81
f 105/140/82 104/139/82 19/51/82 18/50/82
f 79/114/83 78/113/83 106/141/83 107/142/83
f 81/116/84 80/115/84 108/143/84 109/144/84
f 82/117/34 79/114/34 107/142/34 110/145/34
f 78/113/85 81/116/85 109/144/85 106/141/85
f 80/115/86 82/117/86 110/145/86 108/143/86
f 107/142/87 106/141/87 61/96/87 71/106/87
f 109/144/88 108/143/88 45/80/88 62/97/88
f 110/145/89 107/142/89 71/106/89 46/81/89
f 106/141/90 109/144/90 62/97/90 61/96/90
f 108/143/91 110/145/91 46/81/91 45/80/91
f 85/120/92 87/122/92 111/146/92 112/147/92
f 83/118/93 86/121/93 113/148/93 114/149/93
f 87/122/94 84/119/94 115/150/94 111/146/94
f 86/121/95 85/120/95 112/147/95 113/148/95
f 84/119/96 83/118/96 114/149/96 115/150/96
f 112/147/97 111/146/97 100/135/97 99/134/97
f 114/149/98 113/148/98 98/133/98 97/132/98
f 111/146/99 115/150/99 96/131/99 100/135/99
f 113/148/100 112/147/100 99/134/100 98/133/100
f 115/150/101 114/149/101 97/132/101 96/131/101
f 89/124/102 88/123/102 116/151/102 117/152/102
f 91/126/103 90/125/103 118/153/103 119/154/103
f 92/127/104 89/124/104 117/152/104 120/155/104
f 88/123/105 91/126/105 119/154/105 116/151/105
f 90/125/106 92/127/106 120/155/106 118/153/106
f 117/152/107 116/151/107 53/88/107 67/102/107
f 119/154/108 118/153/108 37/72/108 54/89/108
f 120/155/109 117/152/109 67/102/109 38/73/109
f 116/151/110 119/154/110 54/89/110 53/88/110
f 118/153/111 120/155/111 38/73/111 37/72/111
f 17/49/112 16/48/112 121/156/112 122/157/112
f 23/57/113 22/56/113 123/158/113 124/159/113
f 24/59/31 17/49/31 122/157/31 125/160/31
f 16/48/114 23/57/114 124/159/114 121/156/114
f 22/56/115 24/59/115 125/160/115 123/158/115
f 122/157/116 121/156/116 49/161/116 65/162/116
f 124/159/117 123/158/117 33/163/117 50/164/117
f 125/160/118 122/157/118 65/162/118 34/165/118
f 121/156/119 124/159/119 50/164/119 49/161/119
f 123/158/120 125/160/120 34/165/120 33/163/120
